<svg width="660" height="202" viewBox="0 0 660 202" fill="none" xmlns="http://www.w3.org/2000/svg">
<path d="M323.298 123.958C178.926 161.279 47.6722 139.509 0.0919495 123.958V0.373016H671.993V123.958C615.916 108.408 467.67 86.6372 323.298 123.958Z" fill="#6DECE0" stroke="#6DECE0"/>
<path d="M321.119 150.826C170.626 175.458 41.1376 142.466 -4.79479 122.89L11.4695 0L689 58.0741L672.736 180.964C618.236 160.654 471.612 126.193 321.119 150.826Z" fill="#6DECE0" fill-opacity="0.1"/>
<path d="M325.933 153.353C182.109 188.136 47.5779 182.25 -1.70975 174.959L-10.0884 91.7348L671.036 46.82L679.414 130.044C621.514 123.32 469.756 118.57 325.933 153.353Z" fill="#6DECE0" fill-opacity="0.2"/>
<rect x="-22" y="0.455307" width="22.0999" height="201" fill="white"/>
</svg>
